<svg width="10" height="11" viewBox="0 0 10 11" fill="none" xmlns="http://www.w3.org/2000/svg">
<path d="M9.64286 1.91634H7.80402L7.04509 0.846528C6.83259 0.574635 6.50446 0.408234 6.12946 0.408234H3.87054C3.49554 0.408234 3.14732 0.574635 2.95536 0.846528L2.19598 1.91634H0.357143C0.15904 1.91634 0 2.05075 0 2.21796V2.51959C0 2.68736 0.15904 2.82121 0.357143 2.82121H0.714286V8.85364C0.714286 9.52004 1.35379 10.0601 2.14286 10.0601H7.85714C8.64621 10.0601 9.28571 9.52004 9.28571 8.85364V2.82121H9.64286C9.84152 2.82121 10 2.68736 10 2.51959V2.21796C10 2.05075 9.84152 1.91634 9.64286 1.91634ZM3.83705 1.36739C3.85937 1.3344 3.90402 1.3131 3.95089 1.3131H6.04911C6.09654 1.3131 6.14118 1.33431 6.1635 1.3673L6.55357 1.91634H3.44643L3.83705 1.36739ZM7.85714 9.15527H2.14286C1.9456 9.15527 1.78571 9.02023 1.78571 8.85364V2.82121H8.21429V8.85364C8.21429 9.01954 8.05357 9.15527 7.85714 9.15527ZM5 8.2504C5.19741 8.2504 5.35714 8.1155 5.35714 7.94878V4.0277C5.35714 3.86097 5.19741 3.72607 5 3.72607C4.80259 3.72607 4.64286 3.8618 4.64286 4.0277V7.94878C4.64286 8.11467 4.80357 8.2504 5 8.2504ZM3.21429 8.2504C3.41071 8.2504 3.57143 8.11467 3.57143 7.94878V4.0277C3.57143 3.86097 3.4117 3.72607 3.21429 3.72607C3.01688 3.72607 2.85714 3.8618 2.85714 4.0277V7.94878C2.85714 8.11467 3.01786 8.2504 3.21429 8.2504ZM6.78571 8.2504C6.98313 8.2504 7.14286 8.1155 7.14286 7.94878V4.0277C7.14286 3.86097 6.98313 3.72607 6.78571 3.72607C6.5883 3.72607 6.42857 3.8618 6.42857 4.0277V7.94878C6.42857 8.11467 6.58929 8.2504 6.78571 8.2504Z" fill="white"/>
</svg>
