<svg width="10" height="11" viewBox="0 0 10 11" fill="none" xmlns="http://www.w3.org/2000/svg">
<path d="M9.71615 2.14592L8.19966 0.682225C8.01661 0.50553 7.77323 0.408234 7.51435 0.408234C7.25549 0.408234 7.01211 0.50553 6.82906 0.68222L0.480995 6.80928C0.420741 6.86744 0.381901 6.94307 0.370451 7.02457L0.00354065 9.63359C-0.0128139 9.74995 0.0280725 9.86699 0.114102 9.95001C0.187639 10.021 0.286922 10.0601 0.389512 10.0601C0.406916 10.0601 0.424432 10.059 0.44193 10.0567L3.14502 9.70259C3.22947 9.69152 3.30783 9.65405 3.36808 9.59588L9.71615 3.46883C9.8992 3.29216 10 3.05724 10 2.80739C10 2.55751 9.8992 2.3226 9.71615 2.14592ZM2.91009 8.97452L0.844357 9.24514L1.12475 7.25133L5.62316 2.90953L7.40848 4.63272L2.91009 8.97452ZM9.16525 2.93711L7.95937 4.10101L6.17404 2.37782L7.37991 1.21393C7.42838 1.16717 7.48494 1.16018 7.51435 1.16018C7.54375 1.16018 7.60032 1.16717 7.64879 1.21393L9.16527 2.67763C9.21372 2.72439 9.22095 2.77899 9.22095 2.80737C9.22095 2.83575 9.21371 2.89035 9.16525 2.93711Z" fill="white"/>
</svg>
