<svg width="15" height="15" viewBox="0 0 15 15" fill="none" xmlns="http://www.w3.org/2000/svg">
<path d="M1.19531 6.32498H6.25V1.77576C6.25 1.18162 6.80859 0.699982 7.5 0.699982C8.19141 0.699982 8.75 1.18162 8.75 1.77576V6.32498H13.8047C14.4648 6.32498 15 6.82772 15 7.44998C15 8.07225 14.4648 8.57498 13.8047 8.57498H8.75V13.1242C8.75 13.7183 8.19141 14.2 7.5 14.2C6.80859 14.2 6.25 13.7183 6.25 13.1242V8.57498H1.19531C0.535157 8.57498 0 8.07225 0 7.44998C0 6.82772 0.535157 6.32498 1.19531 6.32498Z" fill="white"/>
</svg>
